<svg version="1.1" id="Layer_1" xmlns="http://www.w3.org/2000/svg" xmlns:xlink="http://www.w3.org/1999/xlink" x="0px" y="0px"
	 width="100%" viewBox="0 0 500 500" enable-background="new 0 0 500 500" xml:space="preserve">
<path fill="#FFF6F7" opacity="1.000000" stroke="none" 
	d="
M223.000000,501.000000 
	C148.666687,501.000000 74.833366,501.000000 1.000040,501.000000 
	C1.000026,334.333405 1.000026,167.666779 1.000013,1.000129 
	C167.666565,1.000086 334.333130,1.000086 500.999756,1.000043 
	C500.999847,167.666534 500.999847,334.333069 500.999939,500.999817 
	C408.500000,501.000000 316.000000,501.000000 223.000000,501.000000 
M321.319519,297.964203 
	C320.883270,297.973267 320.447052,297.982361 319.582184,297.453827 
	C318.927765,297.919952 317.707855,298.379547 317.702393,298.853210 
	C317.591156,308.480408 317.618958,318.109283 317.618958,327.737427 
	C320.325592,327.737427 322.564362,327.737427 325.025116,327.737427 
	C324.900024,325.924133 324.798492,324.452423 324.853485,322.058746 
	C324.797302,314.381683 324.741150,306.704590 324.789246,298.408569 
	C323.850830,298.258728 322.912445,298.108856 321.319519,297.964203 
M347.082245,234.716263 
	C348.183228,237.420914 350.060883,238.984940 352.817474,237.283722 
	C353.726898,236.722488 354.215485,234.551208 353.989563,233.276871 
	C353.555573,230.828690 352.473694,228.495346 351.483612,225.596191 
	C351.263245,225.476822 350.092651,224.957153 349.055176,224.243866 
	C348.252960,223.692337 347.617493,222.898285 346.907928,222.212051 
	C346.494965,223.263336 346.040863,224.300812 345.682007,225.370270 
	C345.394623,226.226685 345.222992,227.121964 344.383179,227.691803 
	C342.944336,226.183121 340.017487,224.142883 340.332642,223.260773 
	C341.494934,220.007111 343.730072,217.136688 346.382263,212.771835 
	C347.640503,215.665527 348.267273,217.318756 349.076447,218.877274 
	C349.472504,219.640106 350.137512,220.671753 350.807831,220.777664 
	C351.599182,220.902695 352.794708,220.388901 353.347839,219.748520 
	C355.143341,217.669861 353.336853,212.801163 351.331268,210.837173 
	C347.437012,207.023590 343.161743,208.616791 338.412506,208.555603 
	C324.821686,194.898102 311.147797,181.321518 297.707764,167.517197 
	C294.902039,164.635406 292.920593,165.396240 290.675201,167.624451 
	C281.477905,176.751511 272.320221,185.918518 262.456970,194.979736 
	C261.359436,194.651062 260.261871,194.322388 258.903351,193.342514 
	C253.265594,187.585815 247.627838,181.829132 241.983780,175.278595 
	C241.873901,173.025986 242.210403,170.625259 241.526276,168.563171 
	C240.866943,166.575851 239.540604,164.093994 237.828781,163.308884 
	C233.116714,161.147736 228.262329,161.958740 224.318085,164.449753 
	C223.287766,162.924500 222.646088,160.863281 221.490768,160.517319 
	C219.624649,159.958496 217.420517,160.528366 214.223007,160.672928 
	C216.494537,163.193558 217.651047,164.476883 218.245956,165.137039 
	C216.564743,167.172638 215.133926,168.905075 213.586990,170.778107 
	C212.251022,169.550323 210.984558,168.386429 209.510574,167.031799 
	C206.792511,171.200546 207.532730,174.057999 212.287491,176.093521 
	C210.701569,177.610825 209.481171,178.778397 208.182266,180.021103 
	C205.128494,175.244904 203.459885,174.879562 199.290009,177.836563 
	C200.453812,179.124023 201.616562,180.410309 202.456436,181.339417 
	C200.710983,183.207031 199.182800,184.842163 197.491608,186.651703 
	C196.319672,185.585815 195.042664,184.424362 193.731567,183.231903 
	C190.984787,187.612961 191.300262,189.040344 195.630142,192.189392 
	C194.473297,193.339615 193.339035,194.467377 192.184433,195.615356 
	C188.898697,191.115479 186.774597,190.769272 183.443909,194.055817 
	C184.603745,195.337082 185.763565,196.618347 186.923386,197.899612 
	C186.462387,197.691818 186.001373,197.484024 185.540359,197.276230 
	C184.402725,199.117477 183.265106,200.958725 181.982208,203.035080 
	C180.417999,201.621841 179.136765,200.464279 177.840988,199.293549 
	C174.698090,203.712158 175.285629,205.485443 180.523407,207.986374 
	C175.484924,219.056549 175.484924,219.056549 180.044586,223.654312 
	C179.138275,224.465393 178.247543,225.262558 177.591125,225.850021 
	C178.837906,227.279953 179.931641,228.534348 180.165726,228.802826 
	C178.344193,231.051392 177.060089,232.636566 176.590576,233.216156 
	C179.287811,236.912811 181.143295,239.455795 182.311737,241.930161 
	C180.779037,241.039948 179.246338,240.149734 176.775101,238.714401 
	C180.092407,244.400787 180.564636,244.584457 183.773865,242.000443 
	C184.900574,242.474380 186.729233,242.675156 187.037582,243.467545 
	C188.756882,247.885590 191.830978,247.092392 195.565033,246.450134 
	C206.027817,256.945557 216.578796,267.355469 226.894119,277.993896 
	C229.621872,280.807068 231.284271,280.959991 234.092148,278.050842 
	C242.181015,269.670319 250.587936,261.596802 258.942444,254.247345 
	C259.557953,259.622009 262.268188,257.011932 264.058411,256.377106 
	C266.797180,259.252533 269.821228,261.704529 272.771454,264.242340 
	C273.324860,264.718353 273.719666,265.492157 273.956055,266.205322 
	C275.859131,271.946747 276.950317,272.549133 282.990601,271.860077 
	C281.951324,278.639801 286.814178,279.750427 291.700195,280.587219 
	C292.190186,283.510010 291.979614,286.946533 296.463226,285.503265 
	C296.180389,280.389709 296.180389,280.389709 304.597534,284.601013 
	C304.655518,283.541473 304.653442,282.613770 304.765900,281.700195 
	C305.152405,278.559875 304.473358,274.025391 306.252686,272.619354 
	C308.837372,270.576935 313.184753,268.423309 316.847900,272.485901 
	C317.358429,273.052124 319.743317,272.840363 320.335052,272.170807 
	C320.956238,271.467896 320.779449,269.666473 320.375854,268.553894 
	C319.904877,267.255615 318.810699,266.183411 318.529480,264.539886 
	C318.684296,263.354645 318.839081,262.169373 319.046112,260.350037 
	C319.362579,259.567810 319.679016,258.785614 320.702484,257.989929 
	C321.468719,257.326416 322.234985,256.662903 323.651886,255.711365 
	C325.959442,255.175827 328.245483,254.400635 330.582275,254.190704 
	C332.089691,254.055283 333.671600,254.748886 335.220123,255.070953 
	C334.848907,253.591675 334.537598,252.093597 334.081696,250.640900 
	C333.846069,249.890167 333.353729,249.219986 332.453796,247.530502 
	C335.662598,245.282593 338.889343,243.165527 341.922302,240.800064 
	C342.715454,240.181488 343.333893,238.765900 343.275848,237.759979 
	C343.183197,236.153763 342.457062,234.584122 342.728546,233.079666 
	C344.151947,233.385834 345.575378,233.692001 347.082245,234.716263 
M248.078049,308.008789 
	C247.938080,309.225861 247.798096,310.442963 247.583115,312.312347 
	C241.324615,307.249725 235.614899,302.631012 229.311874,297.532379 
	C229.311874,308.281464 229.311874,317.963074 229.311874,327.613617 
	C231.703812,327.613617 233.743057,327.613617 236.223663,327.613617 
	C236.223663,322.653992 236.223663,318.104645 236.223663,312.814880 
	C242.809845,318.055023 248.759689,322.788879 255.167709,327.887268 
	C255.167709,317.132141 255.167709,307.387726 255.167709,297.473694 
	C252.777878,297.473694 250.712585,297.473694 248.071732,297.473694 
	C248.071732,300.892120 248.071732,304.012146 248.078049,308.008789 
M185.110260,327.964722 
	C187.172852,327.964722 189.235443,327.964722 191.959656,327.964722 
	C189.114594,323.316071 186.727020,319.414948 184.330917,315.499847 
	C185.139557,314.736206 185.630814,314.298889 186.092468,313.832275 
	C191.552689,308.313171 190.305923,301.149109 182.910263,298.777924 
	C178.243378,297.281616 173.082626,297.325592 167.848511,296.640015 
	C167.848511,307.707336 167.848511,317.724152 167.848511,328.072510 
	C170.408401,327.954224 172.465012,327.859192 174.546799,327.762970 
	C174.788330,323.980072 174.991791,320.793518 175.195251,317.606964 
	C175.656860,317.464569 176.118484,317.322174 176.580109,317.179779 
	C179.174072,320.701782 181.768051,324.223816 185.110260,327.964722 
M263.729309,328.027924 
	C266.610382,328.557037 267.635254,326.872406 268.810150,324.549286 
	C269.461090,323.262085 271.759094,322.042236 273.253754,322.111298 
	C276.109314,322.243225 280.801666,322.585938 281.405884,324.136810 
	C283.378113,329.199493 286.728668,328.002380 290.848755,327.757660 
	C286.905945,317.898010 283.198425,308.364929 279.181000,298.964294 
	C278.754761,297.966919 276.441864,297.161591 275.131226,297.319763 
	C273.659241,297.497375 271.588989,298.549591 271.059509,299.774750 
	C267.125031,308.878601 263.508820,318.120026 259.651917,327.666748 
	C261.070557,327.819946 262.015167,327.921967 263.729309,328.027924 
M364.457458,306.863708 
	C363.380524,304.251038 362.475037,301.549500 361.179932,299.049835 
	C359.800354,296.387115 354.551605,296.195068 353.406860,298.878296 
	C349.383240,308.309387 345.657745,317.867706 341.773590,327.490570 
	C347.861084,328.402069 347.861084,328.402069 351.027893,323.523438 
	C352.529785,321.209808 362.711517,321.097076 363.429810,323.660065 
	C364.927032,329.002625 368.421295,328.390198 372.789185,327.598053 
	C370.058228,320.783386 367.410889,314.177460 364.457458,306.863708 
M141.023331,318.453186 
	C141.023331,321.544952 141.023331,324.636688 141.023331,327.764404 
	C143.803421,327.764404 145.881042,327.764404 148.306625,327.764404 
	C148.306625,325.356293 147.969894,323.143890 148.415421,321.102203 
	C148.758682,319.529205 149.758408,317.627197 151.053558,316.849243 
	C152.819763,315.788391 155.238419,315.886475 157.209213,315.077942 
	C160.947861,313.544067 162.973099,310.613342 162.821106,306.505310 
	C162.662994,302.231934 160.550491,298.857697 156.353897,298.099091 
	C151.438049,297.210510 146.345673,297.298462 141.023361,296.942322 
	C141.023361,304.517334 141.023361,310.993011 141.023331,318.453186 
M213.439651,299.827698 
	C210.864120,296.280945 206.368790,295.830261 204.910629,299.245819 
	C200.945755,308.533020 197.321884,317.965790 193.424576,327.685760 
	C197.644989,328.119232 201.254135,329.299011 202.877014,323.866516 
	C203.797379,320.785583 214.285782,320.993896 215.243240,324.116821 
	C216.845703,329.343567 220.311432,328.122192 224.508789,327.608246 
	C220.837036,318.341248 217.305222,309.427490 213.439651,299.827698 
M295.300873,298.119110 
	C295.300873,308.002594 295.300873,317.886108 295.300873,327.684875 
	C301.458435,327.684875 307.031403,327.684875 312.511139,327.684875 
	C312.511139,325.582397 312.511139,323.851837 312.511139,321.894653 
	C311.176849,321.894653 310.193268,321.915771 309.210815,321.891205 
	C302.372467,321.720459 302.369385,321.717468 302.363953,314.977844 
	C302.359283,309.195648 302.362946,303.413452 302.362946,297.462891 
	C299.783569,297.462891 297.830292,297.462891 295.300873,298.119110 
M377.932373,322.233398 
	C378.020844,323.949005 377.917908,325.716949 378.360931,327.335510 
	C378.448425,327.655151 381.148682,327.895752 381.734985,327.291168 
	C382.580109,326.419739 383.295410,324.022888 382.817383,323.556183 
	C381.791931,322.555145 379.967468,322.372559 377.932373,322.233398 
z"/>
<path fill="#FDF2EE" opacity="1.000000" stroke="none" 
	d="
M182.998779,241.998779 
	C181.143295,239.455795 179.287811,236.912811 176.590576,233.216156 
	C177.060089,232.636566 178.344193,231.051392 180.165726,228.802826 
	C179.931641,228.534348 178.837906,227.279953 177.591125,225.850021 
	C178.247543,225.262558 179.138275,224.465393 180.044586,223.654312 
	C175.484924,219.056549 175.484924,219.056549 180.523407,207.986374 
	C175.285629,205.485443 174.698090,203.712158 177.840988,199.293549 
	C179.136765,200.464279 180.417999,201.621841 181.982208,203.035080 
	C183.265106,200.958725 184.402725,199.117477 185.540359,197.276230 
	C186.001373,197.484024 186.462387,197.691818 186.923386,197.899612 
	C185.763565,196.618347 184.603745,195.337082 183.447968,194.057922 
	C186.774597,190.769272 188.898697,191.115479 192.184433,195.615356 
	C193.339035,194.467377 194.473297,193.339615 195.630142,192.189392 
	C191.300262,189.040344 190.984787,187.612961 193.731567,183.231903 
	C195.042664,184.424362 196.319672,185.585815 197.491608,186.651703 
	C199.182800,184.842163 200.710983,183.207031 202.456436,181.339417 
	C201.616562,180.410309 200.453812,179.124023 199.290009,177.836563 
	C203.459885,174.879562 205.128494,175.244904 208.182266,180.021103 
	C209.481171,178.778397 210.701569,177.610825 212.287491,176.093521 
	C207.532730,174.057999 206.792511,171.200546 209.510574,167.031799 
	C210.984558,168.386429 212.251022,169.550323 213.586990,170.778107 
	C215.133926,168.905075 216.564743,167.172638 218.245956,165.137039 
	C217.651047,164.476883 216.494537,163.193558 214.223007,160.672928 
	C217.420517,160.528366 219.624649,159.958496 221.490768,160.517319 
	C222.646088,160.863281 223.287766,162.924500 224.318085,164.449753 
	C228.262329,161.958740 233.116714,161.147736 237.828781,163.308884 
	C239.540604,164.093994 240.866943,166.575851 241.526276,168.563171 
	C242.210403,170.625259 241.873901,173.025986 241.683609,175.529861 
	C238.672821,173.074738 235.881790,170.442978 233.278397,167.637100 
	C231.381012,165.592133 229.839462,165.565994 227.885361,167.587524 
	C224.182388,171.418289 220.253220,175.029846 216.533157,178.844757 
	C208.531296,187.050613 200.602478,195.327713 192.348358,203.714325 
	C190.347244,205.544739 188.641556,207.236496 186.644241,209.079575 
	C186.019669,210.695557 184.905869,212.918015 185.476364,213.505859 
	C190.377975,218.556549 195.583969,223.311844 200.875992,228.446243 
	C206.780273,234.473328 212.507645,240.209503 218.198532,246.148743 
	C218.162033,246.351822 218.115036,246.761810 218.082916,247.158325 
	C218.182465,251.318253 220.673492,252.093063 224.040344,252.196487 
	C224.575333,252.780640 224.855042,253.250153 225.123840,254.098053 
	C226.175308,255.267746 227.237656,256.059082 228.591003,257.001282 
	C230.537704,256.570282 232.645462,256.449097 233.779678,255.335907 
	C246.114731,243.229645 258.331757,231.002167 270.498840,218.726349 
	C273.854492,215.340683 276.937286,211.684540 280.132874,208.137421 
	C280.120483,208.122345 280.089600,208.124878 280.415283,208.056396 
	C281.877380,206.700272 283.013794,205.412659 284.092743,204.068329 
	C284.035309,204.011642 284.120758,204.148560 284.429199,204.079376 
	C285.250763,203.373901 285.763916,202.737625 286.530884,201.960083 
	C287.555176,200.961014 288.325623,200.103241 289.357361,199.055237 
	C289.802673,198.282608 289.986694,197.700241 290.114807,197.106110 
	C290.058868,197.094345 290.131989,197.182220 290.440887,197.221725 
	C291.199585,196.869507 291.649353,196.477783 292.077026,196.048401 
	C292.054901,196.010757 292.046234,196.097656 292.309814,196.006104 
	C292.821228,195.640060 293.069061,195.365540 293.628601,195.169800 
	C296.367126,197.398483 298.793945,199.548370 301.550201,201.990158 
	C277.494904,225.872452 253.961746,249.236359 230.323059,272.705048 
	C218.780090,261.243225 207.205795,249.551712 195.370560,238.130600 
	C192.204758,235.075577 190.781830,232.585510 194.883804,229.455475 
	C190.858398,226.826813 188.078369,228.207016 184.336121,234.379852 
	C187.908920,238.225830 191.512711,242.105148 195.116486,245.984482 
	C191.830978,247.092392 188.756882,247.885590 187.037582,243.467545 
	C186.729233,242.675156 184.900574,242.474380 183.386932,242.000214 
	C183.000000,242.000000 182.998779,241.998779 182.998779,241.998779 
M189.801071,223.401688 
	C189.796768,223.788818 189.792465,224.175964 189.788177,224.563095 
	C189.948853,224.564606 190.249146,224.576965 190.249985,224.566025 
	C190.279938,224.180939 190.281769,223.793671 189.801071,223.401688 
z"/>
<path fill="#ECA07D" opacity="1.000000" stroke="none" 
	d="
M218.115036,246.761810 
	C218.115036,246.761810 218.162033,246.351822 218.567322,246.159470 
	C225.243149,244.597458 220.345993,241.516006 220.165237,238.828400 
	C227.952347,230.967346 235.516647,223.332352 243.275253,215.900192 
	C246.214340,213.084778 247.052139,210.861115 243.501343,207.863647 
	C239.849457,204.780853 236.554977,201.274643 232.940811,197.641373 
	C231.414597,197.221786 229.598679,196.509140 228.776382,197.124405 
	C226.586685,198.762848 224.824799,200.973068 222.601379,203.105011 
	C220.191315,205.465500 218.072723,207.676926 215.654633,210.041428 
	C213.500290,212.386490 211.645447,214.578476 209.840546,216.887360 
	C209.890472,217.004242 209.765778,216.782150 209.445160,216.800354 
	C208.006332,217.830139 206.888107,218.841736 205.571960,219.828339 
	C205.374039,219.803345 204.975067,219.808640 204.760529,219.576202 
	C201.884766,217.204956 202.014465,215.388535 204.551849,212.947128 
	C212.103546,205.681137 219.525406,198.269989 226.751617,190.680954 
	C229.656738,187.629959 231.591125,187.761124 234.334686,190.828903 
	C239.509338,196.615051 245.016983,202.103409 250.802277,208.150452 
	C255.462204,203.213486 259.305084,199.142151 263.147949,195.070816 
	C272.320221,185.918518 281.477905,176.751511 290.675201,167.624451 
	C292.920593,165.396240 294.902039,164.635406 297.707764,167.517197 
	C311.147797,181.321518 324.821686,194.898102 338.791992,209.115204 
	C338.725647,211.441940 338.624207,213.405243 337.754974,214.931137 
	C336.381134,217.342804 334.492401,219.461166 332.607483,221.499207 
	C331.317169,219.838516 330.240967,218.382263 329.185974,216.593506 
	C330.054108,214.679565 330.901031,213.098175 332.129639,210.804153 
	C322.534943,201.234512 312.852905,191.577774 303.010681,181.623444 
	C300.760925,179.195786 298.608459,177.123123 296.598633,174.920288 
	C294.367676,172.475143 292.731659,172.753693 291.198181,175.833282 
	C290.263031,176.562302 289.607880,177.228119 288.661011,178.058731 
	C283.416687,183.339630 278.464050,188.455750 273.210266,193.708603 
	C257.306580,209.416290 241.780014,225.064575 226.050644,240.506256 
	C221.877228,244.603363 225.986679,246.093658 227.896851,248.308014 
	C230.608841,251.451950 232.408875,249.545441 234.216873,246.815674 
	C234.954880,246.065979 235.466644,245.499359 236.286133,244.811111 
	C248.043228,233.400589 259.492584,222.111694 270.961670,211.177963 
	C271.177673,214.398285 272.336578,213.866791 274.019989,212.519684 
	C275.974854,210.955353 278.096222,209.599091 280.145294,208.152527 
	C276.937286,211.684540 273.854492,215.340683 270.498840,218.726349 
	C258.331757,231.002167 246.114731,243.229645 233.779678,255.335907 
	C232.645462,256.449097 230.537704,256.570282 228.464233,256.696167 
	C227.075897,255.400009 226.105316,254.559845 225.134735,253.719681 
	C224.855042,253.250153 224.575333,252.780640 223.939377,251.882919 
	C221.760437,249.890411 219.937729,248.326111 218.115036,246.761810 
z"/>
<path fill="#EEA07B" opacity="1.000000" stroke="none" 
	d="
M280.132874,208.137436 
	C278.096222,209.599091 275.974854,210.955353 274.019989,212.519684 
	C272.336578,213.866791 271.177673,214.398285 271.073242,210.926697 
	C271.582855,209.711685 272.000610,209.103134 272.647583,208.383926 
	C273.199280,208.162018 273.521790,208.050735 274.166687,207.936188 
	C274.962158,207.568741 275.435242,207.204575 275.875031,206.863907 
	C275.841736,206.887405 275.810730,206.812012 276.187927,206.839615 
	C277.361237,205.537903 278.157349,204.208588 279.037689,202.666870 
	C279.301971,202.187912 279.549042,202.019974 280.207214,201.924957 
	C281.017456,201.220078 281.483582,200.540833 282.039124,199.651459 
	C282.312683,199.177155 282.562805,199.014511 283.259430,198.964371 
	C284.696228,197.919617 285.752594,196.863907 286.847473,195.822861 
	C286.885986,195.837524 286.842194,195.907394 287.127930,195.768082 
	C287.591156,195.038849 287.768646,194.448929 288.112549,193.574066 
	C289.806305,191.149719 291.333649,189.010345 293.024353,186.642181 
	C295.580322,189.071533 296.730469,190.221878 297.943146,191.301987 
	C299.289215,192.500916 300.692383,193.635712 302.205872,195.084595 
	C303.268372,196.242645 304.195709,197.114532 305.225800,198.288666 
	C306.904846,200.004272 308.481171,201.417648 310.169037,203.078003 
	C310.569122,203.533249 310.857635,203.741486 311.250793,204.245575 
	C312.582123,205.664520 313.808777,206.787613 315.164856,208.218964 
	C318.583130,211.670898 321.872040,214.814590 325.268494,218.256226 
	C326.656769,219.996368 327.937469,221.438553 329.024414,223.020538 
	C329.249054,223.417953 329.667480,223.675583 330.063171,223.964966 
	C330.040436,223.996689 330.035736,223.918747 330.156097,224.167816 
	C330.593750,224.591125 330.911011,224.765381 331.486389,225.059799 
	C332.228943,225.752304 332.713409,226.324646 333.007629,227.036896 
	C333.239136,227.431137 333.660858,227.685455 334.055908,227.968201 
	C334.029266,227.996613 334.033966,227.918823 334.135193,228.156067 
	C334.515472,228.583130 334.794525,228.772964 335.035217,228.965851 
	C334.996887,228.968887 335.061676,228.927368 335.041290,229.325897 
	C334.368683,231.149918 333.716461,232.575378 332.900055,233.721954 
	C331.293579,232.180176 329.851318,230.917313 328.257874,229.359528 
	C320.416382,221.695862 312.726013,214.327103 304.781494,206.714798 
	C304.048828,207.551331 302.990143,208.760132 301.653320,210.145447 
	C294.540192,217.142075 287.705170,223.962189 280.575134,230.968811 
	C274.876251,235.735062 280.810638,236.775024 282.923981,239.357132 
	C285.369080,241.798477 287.638947,243.945312 289.953796,246.046082 
	C289.998779,246.000000 289.906921,246.091171 290.044922,246.400314 
	C292.748596,250.523010 295.458160,250.601334 298.275452,246.996445 
	C299.263214,245.732544 300.192108,244.422653 301.092346,243.064621 
	C301.036804,242.995499 301.125671,243.148636 301.425903,243.093964 
	C302.405945,242.332474 303.085693,241.625641 304.070496,240.796417 
	C305.575653,239.385620 306.775757,238.097229 308.280579,236.694244 
	C311.777405,233.102966 314.969513,229.626266 318.077515,226.132355 
	C317.993408,226.115128 318.151642,226.182281 318.491089,226.204041 
	C325.672272,229.243256 319.693817,231.861832 318.264343,234.762024 
	C313.626587,239.234589 309.293518,243.576584 304.678436,248.082092 
	C302.924866,249.828079 301.453339,251.410583 299.763367,253.095215 
	C299.268158,253.386963 299.081238,253.642380 298.704407,254.094376 
	C297.610107,255.136978 296.795624,256.048828 295.677368,257.075378 
	C293.876953,256.567810 292.043823,256.301849 290.941895,255.261444 
	C286.228302,250.810837 281.614990,246.239197 277.198151,241.494751 
	C274.656586,238.764694 272.713745,238.087112 270.001617,241.321136 
	C266.486755,245.512436 262.597809,249.390045 258.869904,253.402679 
	C250.587936,261.596802 242.181015,269.670319 234.092148,278.050842 
	C231.284271,280.959991 229.621872,280.807068 226.894119,277.993896 
	C216.578796,267.355469 206.027817,256.945557 195.340759,246.217316 
	C191.512711,242.105148 187.908920,238.225830 184.336121,234.379852 
	C188.078369,228.207016 190.858398,226.826813 194.883804,229.455475 
	C190.781830,232.585510 192.204758,235.075577 195.370560,238.130600 
	C207.205795,249.551712 218.780090,261.243225 230.323059,272.705048 
	C253.961746,249.236359 277.494904,225.872452 301.550201,201.990158 
	C298.793945,199.548370 296.367126,197.398483 293.346008,195.236984 
	C292.516510,195.516144 292.281372,195.806900 292.046234,196.097656 
	C292.046234,196.097656 292.054901,196.010757 291.762054,196.045013 
	C291.023468,196.446930 290.577728,196.814575 290.131989,197.182220 
	C290.131989,197.182220 290.058868,197.094345 289.818512,197.247955 
	C289.417450,198.016205 289.256775,198.630829 289.096069,199.245453 
	C288.325623,200.103241 287.555176,200.961014 286.172058,201.964661 
	C285.079834,202.789871 284.600311,203.469223 284.120758,204.148560 
	C284.120758,204.148560 284.035309,204.011642 283.732056,204.058319 
	C282.315735,205.444962 281.202667,206.784912 280.089600,208.124878 
	C280.089600,208.124878 280.120483,208.122345 280.132874,208.137436 
z"/>
<path fill="#FEF0E9" opacity="1.000000" stroke="none" 
	d="
M298.984222,253.963623 
	C299.081238,253.642380 299.268158,253.386963 300.163269,253.097168 
	C304.605042,253.304230 305.256989,251.001663 304.960449,247.918594 
	C309.293518,243.576584 313.626587,239.234589 318.376434,234.856567 
	C318.793213,234.820557 319.010559,235.007629 319.149872,235.326614 
	C321.729340,240.893402 324.444550,234.909897 326.990601,235.834198 
	C327.321503,233.895309 327.652374,231.956421 328.088562,229.925430 
	C328.193878,229.833328 328.409027,229.654434 328.409027,229.654434 
	C329.851318,230.917313 331.293579,232.180176 332.739624,233.997192 
	C331.801239,235.684967 330.859070,236.818619 329.689545,238.068817 
	C329.259918,238.639450 329.057678,239.093552 328.587097,239.712585 
	C328.061371,240.206406 327.803955,240.535278 327.400452,240.863922 
	C327.254364,240.863708 327.009613,241.023285 326.716919,241.130066 
	C325.609222,242.155975 324.794250,243.075104 323.700867,244.122055 
	C322.568115,245.350876 321.713806,246.451859 320.591003,247.717285 
	C320.062469,248.208481 319.802399,248.535248 319.286560,248.890427 
	C318.678955,249.263382 318.327148,249.607925 317.677917,250.103699 
	C309.628204,257.919250 301.875977,265.583588 292.984863,274.373901 
	C284.603699,265.576752 276.726959,257.308990 268.886658,249.079498 
	C264.046387,251.805923 267.135956,253.909775 269.137482,256.002960 
	C273.838745,260.919647 278.584045,265.794281 283.224304,270.773621 
	C283.137115,270.861359 282.962616,271.036743 282.962616,271.036743 
	C276.950317,272.549133 275.859131,271.946747 273.956055,266.205322 
	C273.719666,265.492157 273.324860,264.718353 272.771454,264.242340 
	C269.821228,261.704529 266.797180,259.252533 264.058411,256.377106 
	C262.268188,257.011932 259.557953,259.622009 258.906189,253.825012 
	C262.597809,249.390045 266.486755,245.512436 270.001617,241.321136 
	C272.713745,238.087112 274.656586,238.764694 277.198151,241.494751 
	C281.614990,246.239197 286.228302,250.810837 290.941895,255.261444 
	C292.043823,256.301849 293.876953,256.567810 295.872070,257.345703 
	C297.404633,257.901733 298.438721,258.302124 300.111664,258.949890 
	C299.600708,256.690186 299.292480,255.326904 298.984222,253.963623 
z"/>
<path fill="#FDF2EE" opacity="1.000000" stroke="none" 
	d="
M262.802460,195.025269 
	C259.305084,199.142151 255.462204,203.213486 250.802277,208.150452 
	C245.016983,202.103409 239.509338,196.615051 234.334686,190.828903 
	C231.591125,187.761124 229.656738,187.629959 226.751617,190.680954 
	C219.525406,198.269989 212.103546,205.681137 204.551849,212.947128 
	C202.014465,215.388535 201.884766,217.204956 204.802307,219.911499 
	C207.228088,222.009033 207.744888,223.818741 205.746552,226.002777 
	C205.497467,225.993362 204.998993,226.000244 204.999496,226.000122 
	C205.000000,226.000000 205.000046,226.000961 204.869644,225.733215 
	C204.213150,225.240265 203.687042,225.015030 203.195496,224.812592 
	C203.230026,224.835373 203.255280,224.756577 203.250870,224.549438 
	C203.246460,224.342316 203.027283,223.990662 202.921661,223.769653 
	C202.618195,223.271683 202.356079,223.084961 201.874878,222.698090 
	C199.932526,220.876846 198.144989,219.345993 196.315308,217.821167 
	C196.273163,217.827194 196.203491,217.870682 196.196487,217.568756 
	C195.800156,216.834076 195.410812,216.401321 195.010437,215.984283 
	C194.999390,216.000000 195.031418,215.978775 194.884491,215.707047 
	C194.201019,215.134201 193.664490,214.833099 193.094666,214.286987 
	C192.749680,213.683929 192.437973,213.325882 192.108765,212.626160 
	C192.459869,211.219009 192.828461,210.153534 193.396301,209.009888 
	C193.850372,208.777206 194.024765,208.558594 194.442657,208.164322 
	C205.407684,197.358704 216.082428,186.697723 226.666229,175.947189 
	C229.301208,173.270737 231.240463,172.485077 234.260086,175.844162 
	C240.964737,183.302582 248.126892,190.349686 256.180023,198.678894 
	C257.559875,196.512619 258.362091,195.253159 259.164337,193.993713 
	C260.261871,194.322388 261.359436,194.651062 262.802460,195.025269 
z"/>
<path fill="#DD5171" opacity="1.000000" stroke="none" 
	d="
M248.074890,307.570496 
	C248.071732,304.012146 248.071732,300.892120 248.071732,297.473694 
	C250.712585,297.473694 252.777878,297.473694 255.167709,297.473694 
	C255.167709,307.387726 255.167709,317.132141 255.167709,327.887268 
	C248.759689,322.788879 242.809845,318.055023 236.223663,312.814880 
	C236.223663,318.104645 236.223663,322.653992 236.223663,327.613617 
	C233.743057,327.613617 231.703812,327.613617 229.311874,327.613617 
	C229.311874,317.963074 229.311874,308.281464 229.311874,297.532379 
	C235.614899,302.631012 241.324615,307.249725 247.583115,312.312347 
	C247.798096,310.442963 247.938080,309.225861 248.074890,307.570496 
z"/>
<path fill="#DD5372" opacity="1.000000" stroke="none" 
	d="
M184.736145,327.855286 
	C181.768051,324.223816 179.174072,320.701782 176.580109,317.179779 
	C176.118484,317.322174 175.656860,317.464569 175.195251,317.606964 
	C174.991791,320.793518 174.788330,323.980072 174.546799,327.762970 
	C172.465012,327.859192 170.408401,327.954224 167.848511,328.072510 
	C167.848511,317.724152 167.848511,307.707336 167.848511,296.640015 
	C173.082626,297.325592 178.243378,297.281616 182.910263,298.777924 
	C190.305923,301.149109 191.552689,308.313171 186.092468,313.832275 
	C185.630814,314.298889 185.139557,314.736206 184.330917,315.499847 
	C186.727020,319.414948 189.114594,323.316071 191.959656,327.964722 
	C189.235443,327.964722 187.172852,327.964722 184.736145,327.855286 
M177.289780,310.900208 
	C179.851913,310.288544 182.806519,309.254456 181.526047,306.174896 
	C180.797104,304.421722 177.783524,303.618500 175.798752,302.387482 
	C175.220764,302.873199 174.642792,303.358917 174.064804,303.844666 
	C174.877457,306.212311 175.690109,308.579987 177.289780,310.900208 
z"/>
<path fill="#DC5371" opacity="1.000000" stroke="none" 
	d="
M263.344543,328.025970 
	C262.015167,327.921967 261.070557,327.819946 259.651917,327.666748 
	C263.508820,318.120026 267.125031,308.878601 271.059509,299.774750 
	C271.588989,298.549591 273.659241,297.497375 275.131226,297.319763 
	C276.441864,297.161591 278.754761,297.966919 279.181000,298.964294 
	C283.198425,308.364929 286.905945,317.898010 290.848755,327.757660 
	C286.728668,328.002380 283.378113,329.199493 281.405884,324.136810 
	C280.801666,322.585938 276.109314,322.243225 273.253754,322.111298 
	C271.759094,322.042236 269.461090,323.262085 268.810150,324.549286 
	C267.635254,326.872406 266.610382,328.557037 263.344543,328.025970 
M273.918945,315.912170 
	C275.273407,315.753723 276.627838,315.595306 278.538147,315.371857 
	C277.406525,312.415924 276.529236,310.124420 275.651978,307.832886 
	C275.155884,307.851227 274.659821,307.869537 274.163757,307.887848 
	C273.825012,310.522339 273.486237,313.156860 273.918945,315.912170 
z"/>
<path fill="#DC5371" opacity="1.000000" stroke="none" 
	d="
M364.610535,307.217590 
	C367.410889,314.177460 370.058228,320.783386 372.789185,327.598053 
	C368.421295,328.390198 364.927032,329.002625 363.429810,323.660065 
	C362.711517,321.097076 352.529785,321.209808 351.027893,323.523438 
	C347.861084,328.402069 347.861084,328.402069 341.773590,327.490570 
	C345.657745,317.867706 349.383240,308.309387 353.406860,298.878296 
	C354.551605,296.195068 359.800354,296.387115 361.179932,299.049835 
	C362.475037,301.549500 363.380524,304.251038 364.610535,307.217590 
M359.741241,315.395111 
	C359.120514,312.860718 358.499817,310.326294 357.879120,307.791901 
	C357.487152,307.812622 357.095184,307.833374 356.703217,307.854095 
	C355.812744,310.320526 354.922302,312.786926 353.840424,315.783478 
	C356.152344,315.783478 357.602051,315.783478 359.741241,315.395111 
z"/>
<path fill="#EA9F7B" opacity="1.000000" stroke="none" 
	d="
M259.033844,193.668106 
	C258.362091,195.253159 257.559875,196.512619 256.180023,198.678894 
	C248.126892,190.349686 240.964737,183.302582 234.260086,175.844162 
	C231.240463,172.485077 229.301208,173.270737 226.666229,175.947189 
	C216.082428,186.697723 205.407684,197.358704 194.429047,207.806000 
	C193.733780,206.379562 193.376007,205.199905 192.923676,203.909882 
	C192.829102,203.799545 192.643753,203.575638 192.643753,203.575638 
	C200.602478,195.327713 208.531296,187.050613 216.533157,178.844757 
	C220.253220,175.029846 224.182388,171.418289 227.885361,167.587524 
	C229.839462,165.565994 231.381012,165.592133 233.278397,167.637100 
	C235.881790,170.442978 238.672821,173.074738 241.686768,175.926788 
	C247.627838,181.829132 253.265594,187.585815 259.033844,193.668106 
z"/>
<path fill="#DD5371" opacity="1.000000" stroke="none" 
	d="
M141.023346,317.960938 
	C141.023361,310.993011 141.023361,304.517334 141.023361,296.942322 
	C146.345673,297.298462 151.438049,297.210510 156.353897,298.099091 
	C160.550491,298.857697 162.662994,302.231934 162.821106,306.505310 
	C162.973099,310.613342 160.947861,313.544067 157.209213,315.077942 
	C155.238419,315.886475 152.819763,315.788391 151.053558,316.849243 
	C149.758408,317.627197 148.758682,319.529205 148.415421,321.102203 
	C147.969894,323.143890 148.306625,325.356293 148.306625,327.764404 
	C145.881042,327.764404 143.803421,327.764404 141.023331,327.764404 
	C141.023331,324.636688 141.023331,321.544952 141.023346,317.960938 
M152.728622,303.536652 
	C151.344467,303.369812 149.960297,303.202942 148.328400,303.006256 
	C148.328400,305.916718 148.328400,308.290405 148.328400,311.797607 
	C150.915176,310.532684 153.176605,309.935059 154.575760,308.497925 
	C155.152893,307.905151 153.877930,305.509216 152.728622,303.536652 
z"/>
<path fill="#D55A75" opacity="1.000000" stroke="none" 
	d="
M213.606537,300.170715 
	C217.305222,309.427490 220.837036,318.341248 224.508789,327.608246 
	C220.311432,328.122192 216.845703,329.343567 215.243240,324.116821 
	C214.285782,320.993896 203.797379,320.785583 202.877014,323.866516 
	C201.254135,329.299011 197.644989,328.119232 193.424576,327.685760 
	C197.321884,317.965790 200.945755,308.533020 204.910629,299.245819 
	C206.368790,295.830261 210.864120,296.280945 213.606537,300.170715 
M212.400513,316.300018 
	C214.817123,319.557251 217.233734,322.814484 219.650345,326.071686 
	C220.152252,325.790771 220.654160,325.509857 221.156067,325.228943 
	C220.099930,322.464874 218.961456,319.728760 218.009903,316.929138 
	C216.975769,313.886536 215.133224,312.778961 211.694031,313.419769 
	C210.886887,311.709167 210.079727,309.998535 208.793228,307.272003 
	C207.573334,310.582397 206.725525,312.883118 205.604568,315.925049 
	C208.250107,315.925049 210.030197,315.925049 212.400513,316.300018 
M199.982468,317.438385 
	C198.978043,320.049347 197.973618,322.660278 196.651077,326.098145 
	C202.497040,322.895691 204.698151,317.718445 202.484421,312.292297 
	C201.452621,314.125000 200.740829,315.389252 199.982468,317.438385 
M211.019165,302.503113 
	C210.660355,301.335175 210.301544,300.167206 209.942734,298.999268 
	C209.348282,299.040924 208.753845,299.082550 208.159409,299.124207 
	C207.889450,300.896057 207.482101,302.665192 207.447144,304.441681 
	C207.438522,304.880096 208.640884,305.342346 209.286545,305.793640 
	C209.861374,304.965118 210.436203,304.136597 211.019165,302.503113 
z"/>
<path fill="#DC5371" opacity="1.000000" stroke="none" 
	d="
M295.588928,297.791016 
	C297.830292,297.462891 299.783569,297.462891 302.362946,297.462891 
	C302.362946,303.413452 302.359283,309.195648 302.363953,314.977844 
	C302.369385,321.717468 302.372467,321.720459 309.210815,321.891205 
	C310.193268,321.915771 311.176849,321.894653 312.511139,321.894653 
	C312.511139,323.851837 312.511139,325.582397 312.511139,327.684875 
	C307.031403,327.684875 301.458435,327.684875 295.300873,327.684875 
	C295.300873,317.886108 295.300873,308.002594 295.588928,297.791016 
z"/>
<path fill="#FEF0E9" opacity="1.000000" stroke="none" 
	d="
M333.197876,226.896973 
	C332.713409,226.324646 332.228943,225.752304 331.343811,224.827866 
	C330.640717,224.290100 330.338226,224.104416 330.035736,223.918732 
	C330.035736,223.918747 330.040436,223.996689 329.985565,223.741302 
	C329.758484,223.207352 329.520996,223.005630 329.218201,222.880753 
	C327.937469,221.438553 326.656769,219.996368 325.615051,218.261902 
	C326.957611,217.621750 328.061188,217.273895 329.164764,216.926025 
	C330.240967,218.382263 331.317169,219.838516 332.686707,221.869446 
	C334.999390,224.470932 337.112579,226.414825 339.003571,228.555038 
	C340.176300,229.882339 341.011871,231.507523 341.998779,232.999008 
	C342.457062,234.584122 343.183197,236.153763 343.275848,237.759979 
	C343.333893,238.765900 342.715454,240.181488 341.922302,240.800064 
	C338.889343,243.165527 335.662598,245.282593 332.453796,247.530502 
	C333.353729,249.219986 333.846069,249.890167 334.081696,250.640900 
	C334.537598,252.093597 334.848907,253.591675 335.220123,255.070953 
	C333.671600,254.748886 332.089691,254.055283 330.582275,254.190704 
	C328.245483,254.400635 325.959442,255.175827 323.004822,255.881378 
	C321.570374,256.702057 320.782928,257.352753 319.995483,258.003418 
	C319.679016,258.785614 319.362579,259.567810 318.623108,260.670807 
	C317.142578,261.003601 316.085114,261.015625 314.940247,260.940094 
	C314.852875,260.852570 314.678162,260.677460 314.817139,260.377533 
	C317.081207,257.437225 319.206299,254.796844 321.606110,251.990540 
	C325.593262,248.230637 329.305664,244.636642 333.342834,240.945862 
	C336.056427,238.860489 338.445251,236.871857 341.235626,234.548950 
	C338.424133,231.988983 336.742889,230.458176 335.061676,228.927368 
	C335.061676,228.927368 334.996887,228.968887 334.940338,228.723145 
	C334.600525,228.291199 334.317261,228.105011 334.033966,227.918823 
	C334.033966,227.918823 334.029266,227.996613 333.967651,227.749573 
	C333.731720,227.228516 333.495667,227.026657 333.197876,226.896973 
z"/>
<path fill="#FEF0E9" opacity="1.000000" stroke="none" 
	d="
M317.986938,265.013123 
	C318.810699,266.183411 319.904877,267.255615 320.375854,268.553894 
	C320.779449,269.666473 320.956238,271.467896 320.335052,272.170807 
	C319.743317,272.840363 317.358429,273.052124 316.847900,272.485901 
	C313.184753,268.423309 308.837372,270.576935 306.252686,272.619354 
	C304.473358,274.025391 305.152405,278.559875 304.765900,281.700195 
	C304.653442,282.613770 304.655518,283.541473 304.597534,284.601013 
	C296.180389,280.389709 296.180389,280.389709 296.463226,285.503265 
	C291.979614,286.946533 292.190186,283.510010 291.700195,280.587219 
	C286.814178,279.750427 281.951324,278.639801 282.976624,271.448425 
	C282.962616,271.036743 283.137115,270.861359 283.525635,270.905090 
	C287.295837,274.031372 290.677551,277.113953 294.092773,280.227081 
	C301.220947,273.457581 307.949554,267.067505 314.678162,260.677460 
	C314.678162,260.677460 314.852875,260.852570 314.929993,261.326172 
	C316.000366,262.870850 316.993652,263.941986 317.986938,265.013123 
z"/>
<path fill="#FDF5F3" opacity="1.000000" stroke="none" 
	d="
M342.363647,233.039337 
	C341.011871,231.507523 340.176300,229.882339 339.003571,228.555038 
	C337.112579,226.414825 334.999390,224.470932 332.900818,222.073883 
	C334.492401,219.461166 336.381134,217.342804 337.754974,214.931137 
	C338.624207,213.405243 338.725647,211.441940 339.027130,209.339417 
	C343.161743,208.616791 347.437012,207.023590 351.331268,210.837173 
	C353.336853,212.801163 355.143341,217.669861 353.347839,219.748520 
	C352.794708,220.388901 351.599182,220.902695 350.807831,220.777664 
	C350.137512,220.671753 349.472504,219.640106 349.076447,218.877274 
	C348.267273,217.318756 347.640503,215.665527 346.382263,212.771835 
	C343.730072,217.136688 341.494934,220.007111 340.332642,223.260773 
	C340.017487,224.142883 342.944336,226.183121 344.731476,228.202118 
	C345.719452,230.474365 346.359100,232.236267 346.998779,233.998169 
	C345.575378,233.692001 344.151947,233.385834 342.363647,233.039337 
z"/>
<path fill="#DD5171" opacity="1.000000" stroke="none" 
	d="
M324.684967,299.027527 
	C324.741150,306.704590 324.797302,314.381683 324.494141,322.583313 
	C323.642822,324.325714 323.150848,325.543518 322.589600,326.932770 
	C319.055939,325.955841 317.729523,324.187592 318.543182,320.671082 
	C319.056213,318.453613 318.858612,316.073975 319.002655,313.768494 
	C319.331238,308.509003 319.673859,303.250397 320.010803,297.991425 
	C320.447052,297.982361 320.883270,297.973267 321.825378,298.213562 
	C323.115814,298.651154 323.900391,298.839325 324.684967,299.027527 
z"/>
<path fill="#FDF6F7" opacity="1.000000" stroke="none" 
	d="
M347.040497,234.357208 
	C346.359100,232.236267 345.719452,230.474365 345.039856,228.356232 
	C345.222992,227.121964 345.394623,226.226685 345.682007,225.370270 
	C346.040863,224.300812 346.494965,223.263336 346.907898,222.212051 
	C347.617493,222.898285 348.252960,223.692337 349.055176,224.243866 
	C350.092651,224.957153 351.263245,225.476822 351.483612,225.596191 
	C352.473694,228.495346 353.555573,230.828690 353.989563,233.276871 
	C354.215485,234.551208 353.726898,236.722488 352.817474,237.283722 
	C350.060883,238.984940 348.183228,237.420914 347.040497,234.357208 
z"/>
<path fill="#D55A75" opacity="1.000000" stroke="none" 
	d="
M319.796509,297.722626 
	C319.673859,303.250397 319.331238,308.509003 319.002655,313.768494 
	C318.858612,316.073975 319.056213,318.453613 318.543182,320.671082 
	C317.729523,324.187592 319.055939,325.955841 322.589600,326.932770 
	C323.150848,325.543518 323.642822,324.325714 324.415894,323.044312 
	C324.798492,324.452423 324.900024,325.924133 325.025116,327.737427 
	C322.564362,327.737427 320.325592,327.737427 317.618958,327.737427 
	C317.618958,318.109283 317.591156,308.480408 317.702393,298.853210 
	C317.707855,298.379547 318.927765,297.919952 319.796509,297.722626 
z"/>
<path fill="#D55A75" opacity="1.000000" stroke="none" 
	d="
M378.201294,322.044128 
	C379.967468,322.372559 381.791931,322.555145 382.817383,323.556183 
	C383.295410,324.022888 382.580109,326.419739 381.734985,327.291168 
	C381.148682,327.895752 378.448425,327.655151 378.360931,327.335510 
	C377.917908,325.716949 378.020844,323.949005 378.201294,322.044128 
z"/>
<path fill="#FCF7F9" opacity="1.000000" stroke="none" 
	d="
M318.258209,264.776489 
	C316.993652,263.941986 316.000366,262.870850 315.017334,261.413696 
	C316.085114,261.015625 317.142578,261.003601 318.596985,260.987854 
	C318.839081,262.169373 318.684296,263.354645 318.258209,264.776489 
z"/>
<path fill="#FDF2EE" opacity="1.000000" stroke="none" 
	d="
M183.000580,242.000610 
	C180.564636,244.584457 180.092407,244.400787 176.775101,238.714401 
	C179.246338,240.149734 180.779037,241.039948 182.655258,241.964478 
	C182.998779,241.998779 183.000000,242.000000 183.000580,242.000610 
z"/>
<path fill="#D55A75" opacity="1.000000" stroke="none" 
	d="
M324.737122,298.718048 
	C323.900391,298.839325 323.115814,298.651154 322.152649,298.210999 
	C322.912445,298.108856 323.850830,298.258728 324.737122,298.718048 
z"/>
<path fill="#FCF7F9" opacity="1.000000" stroke="none" 
	d="
M320.348999,257.996674 
	C320.782928,257.352753 321.570374,256.702057 322.679504,256.025391 
	C322.234985,256.662903 321.468719,257.326416 320.348999,257.996674 
z"/>
<path fill="#F1996E" opacity="1.000000" stroke="none" 
	d="
M202.029694,222.988480 
	C202.356079,223.084961 202.618195,223.271683 202.753220,223.866913 
	C202.878708,224.375641 203.066986,224.566116 203.255280,224.756577 
	C203.255280,224.756577 203.230026,224.835373 203.292847,225.103302 
	C203.903793,225.581131 204.451920,225.791046 205.000046,226.000961 
	C205.000046,226.000961 205.000000,226.000000 205.023956,226.307053 
	C205.435791,227.033722 205.823685,227.453323 206.162857,227.852051 
	C206.114136,227.831192 206.211746,227.789856 206.177399,228.134262 
	C207.158264,229.272995 208.173477,230.067322 209.160858,230.914368 
	C209.133026,230.967087 209.128708,230.847916 209.202179,231.100830 
	C209.569244,231.524826 209.862823,231.695923 210.083466,231.915421 
	C210.010529,231.963837 210.133728,231.839401 210.206299,232.093002 
	C210.578445,232.503616 210.878036,232.660614 211.114777,232.805679 
	C211.051926,232.793732 211.175247,232.759598 211.268875,233.056473 
	C211.921570,233.556839 212.480637,233.760330 213.019501,233.980988 
	C212.999283,233.998169 213.037201,233.958878 213.026550,234.333374 
	C214.734741,236.107162 216.453583,237.506470 218.481995,238.928223 
	C219.200989,239.012146 219.610382,239.073669 220.019791,239.135193 
	C220.345993,241.516006 225.243149,244.597458 218.603821,245.956390 
	C212.507645,240.209503 206.780273,234.473328 201.117798,228.265167 
	C201.826736,226.255371 197.714203,223.879059 202.029694,222.988480 
z"/>
<path fill="#EA9F7B" opacity="1.000000" stroke="none" 
	d="
M201.874878,222.698090 
	C197.714203,223.879059 201.826736,226.255371 200.940887,227.974243 
	C195.583969,223.311844 190.377975,218.556549 185.476364,213.505859 
	C184.905869,212.918015 186.019669,210.695557 186.685486,209.123352 
	C187.018326,209.015808 187.101974,209.102249 187.067154,209.482178 
	C189.509125,213.096817 191.985916,216.331543 194.462708,219.566254 
	C195.094299,218.982529 195.725876,218.398819 196.357452,217.815125 
	C198.144989,219.345993 199.932526,220.876846 201.874878,222.698090 
z"/>
<path fill="#FEEDDC" opacity="1.000000" stroke="none" 
	d="
M218.082916,247.158325 
	C219.937729,248.326111 221.760437,249.890411 223.684097,251.768280 
	C220.673492,252.093063 218.182465,251.318253 218.082916,247.158325 
z"/>
<path fill="#EA9F7B" opacity="1.000000" stroke="none" 
	d="
M186.977081,208.972015 
	C188.641556,207.236496 190.347244,205.544739 192.348358,203.714325 
	C192.643753,203.575638 192.829102,203.799545 192.881470,204.250275 
	C192.289032,206.133789 191.644211,207.566589 190.608063,208.998932 
	C189.178497,209.033081 188.140244,209.067673 187.101974,209.102249 
	C187.101974,209.102249 187.018326,209.015808 186.977081,208.972015 
z"/>
<path fill="#ECA07D" opacity="1.000000" stroke="none" 
	d="
M280.415283,208.056381 
	C281.202667,206.784912 282.315735,205.444962 283.789490,204.115021 
	C283.013794,205.412659 281.877380,206.700272 280.415283,208.056381 
z"/>
<path fill="#FEEDDC" opacity="1.000000" stroke="none" 
	d="
M225.123840,254.098053 
	C226.105316,254.559845 227.075897,255.400009 228.173248,256.545288 
	C227.237656,256.059082 226.175308,255.267746 225.123840,254.098053 
z"/>
<path fill="#ECA07D" opacity="1.000000" stroke="none" 
	d="
M284.429199,204.079376 
	C284.600311,203.469223 285.079834,202.789871 285.918213,202.105942 
	C285.763916,202.737625 285.250763,203.373901 284.429199,204.079376 
z"/>
<path fill="#FFF6F7" opacity="1.000000" stroke="none" 
	d="
M190.044312,223.404205 
	C190.281769,223.793671 190.279938,224.180939 190.249985,224.566025 
	C190.249146,224.576965 189.948853,224.564606 189.788177,224.563095 
	C189.792465,224.175964 189.796768,223.788818 190.044312,223.404205 
z"/>
<path fill="#ECA07D" opacity="1.000000" stroke="none" 
	d="
M289.357361,199.055222 
	C289.256775,198.630829 289.417450,198.016205 289.874451,197.259720 
	C289.986694,197.700241 289.802673,198.282608 289.357361,199.055222 
z"/>
<path fill="#ECA07D" opacity="1.000000" stroke="none" 
	d="
M290.440887,197.221725 
	C290.577728,196.814575 291.023468,196.446930 291.784180,196.082672 
	C291.649353,196.477783 291.199585,196.869507 290.440887,197.221725 
z"/>
<path fill="#ECA07D" opacity="1.000000" stroke="none" 
	d="
M292.309814,196.006104 
	C292.281372,195.806900 292.516510,195.516144 293.034271,195.158203 
	C293.069061,195.365540 292.821228,195.640060 292.309814,196.006104 
z"/>
<path fill="#FDF5F3" opacity="1.000000" stroke="none" 
	d="
M220.165237,238.828400 
	C219.610382,239.073669 219.200989,239.012146 218.316498,238.644714 
	C216.240005,236.878830 214.638611,235.418854 213.037201,233.958878 
	C213.037201,233.958878 212.999283,233.998169 212.889771,233.707565 
	C212.245239,233.197845 211.710236,232.978729 211.175247,232.759613 
	C211.175247,232.759598 211.051926,232.793732 211.050385,232.548904 
	C210.743805,232.149185 210.438766,231.994293 210.133728,231.839401 
	C210.133728,231.839401 210.010529,231.963837 210.018372,231.656876 
	C209.727036,231.182587 209.427872,231.015259 209.128708,230.847916 
	C209.128708,230.847916 209.133026,230.967087 209.125381,230.583496 
	C208.149078,229.396561 207.180405,228.593201 206.211746,227.789856 
	C206.211746,227.789856 206.114136,227.831192 206.171173,227.538940 
	C206.150681,226.835205 206.073151,226.423706 205.995636,226.012207 
	C207.744888,223.818741 207.228088,222.009033 205.016846,220.143921 
	C204.975067,219.808640 205.374039,219.803345 205.889709,219.973038 
	C209.806458,221.303329 209.609039,218.865677 209.765778,216.782150 
	C209.765778,216.782150 209.890472,217.004242 210.214203,216.934906 
	C213.804245,215.673920 216.220474,213.822342 215.954132,209.888367 
	C218.072723,207.676926 220.191315,205.465500 222.984863,203.124756 
	C225.873428,203.993729 228.087051,204.992020 231.045731,206.326294 
	C230.414505,202.486099 227.314377,198.694489 233.104111,197.953720 
	C236.554977,201.274643 239.849457,204.780853 243.501343,207.863647 
	C247.052139,210.861115 246.214340,213.084778 243.275253,215.900192 
	C235.516647,223.332352 227.952347,230.967346 220.165237,238.828400 
z"/>
<path fill="#FDF5F5" opacity="1.000000" stroke="none" 
	d="
M329.185974,216.593506 
	C328.061188,217.273895 326.957611,217.621750 325.507477,217.963959 
	C321.872040,214.814590 318.583130,211.670898 315.150482,207.855392 
	C313.719849,206.105637 312.432983,205.027695 311.146149,203.949738 
	C310.857635,203.741486 310.569122,203.533249 310.146057,202.722321 
	C308.381989,200.741898 306.752533,199.364166 305.123047,197.986435 
	C304.195709,197.114532 303.268372,196.242645 302.178070,194.727417 
	C299.710510,187.050461 296.469666,184.672668 290.968079,185.665878 
	C289.948914,184.546356 288.967590,183.767670 288.139435,182.647308 
	C288.512634,180.835083 288.732697,179.364517 288.952728,177.893951 
	C289.607880,177.228119 290.263031,176.562302 291.613464,175.900513 
	C294.028168,176.966446 295.710571,178.095383 297.477234,179.071869 
	C299.333099,180.097656 301.269623,180.977448 303.170898,181.921036 
	C312.852905,191.577774 322.534943,201.234512 332.129639,210.804153 
	C330.901031,213.098175 330.054108,214.679565 329.185974,216.593506 
z"/>
<path fill="#FEF0E9" opacity="1.000000" stroke="none" 
	d="
M272.418365,208.494568 
	C272.000610,209.103134 271.582855,209.711685 271.053528,210.571503 
	C259.492584,222.111694 248.043228,233.400589 236.283936,244.452728 
	C235.432632,242.703995 234.891235,241.192062 234.196167,239.250961 
	C236.344833,237.711243 238.397919,235.341278 240.918396,234.631836 
	C245.368332,233.379318 248.311752,231.165726 250.024094,226.299728 
	C247.530640,226.698288 245.639862,227.000519 243.515488,227.340073 
	C243.187637,228.752945 242.868423,230.128525 242.580597,231.368896 
	C232.782745,231.729370 232.215897,239.925842 228.677017,246.709702 
	C230.873001,246.829163 232.431824,246.913956 233.990646,246.998749 
	C232.408875,249.545441 230.608841,251.451950 227.896851,248.308014 
	C225.986679,246.093658 221.877228,244.603363 226.050644,240.506256 
	C241.780014,225.064575 257.306580,209.416290 273.331573,193.818130 
	C273.754089,193.790909 273.997559,193.998169 274.033020,194.343658 
	C273.962769,196.351212 278.427948,198.774078 273.413300,199.588501 
	C267.666595,200.521820 263.541351,204.785233 263.263031,210.664627 
	C262.033569,210.899368 260.768616,211.140869 259.898651,211.306961 
	C259.377502,213.667175 258.954712,215.581985 258.531891,217.496796 
	C258.846375,217.784943 259.160828,218.073105 259.475281,218.361252 
	C261.579590,216.376297 263.596375,214.286270 265.814606,212.438049 
	C267.759064,210.817932 269.929688,209.469208 272.104004,208.124863 
	C272.207581,208.249115 272.418365,208.494583 272.418365,208.494568 
z"/>
<path fill="#FCF7F9" opacity="1.000000" stroke="none" 
	d="
M234.216873,246.815689 
	C232.431824,246.913956 230.873001,246.829163 228.677017,246.709702 
	C232.215897,239.925842 232.782745,231.729370 242.580597,231.368896 
	C242.868423,230.128525 243.187637,228.752945 243.515488,227.340073 
	C245.639862,227.000519 247.530640,226.698288 250.024094,226.299728 
	C248.311752,231.165726 245.368332,233.379318 240.918396,234.631836 
	C238.397919,235.341278 236.344833,237.711243 234.196167,239.250961 
	C234.891235,241.192062 235.432632,242.703995 235.976212,244.574341 
	C235.466644,245.499359 234.954880,246.065979 234.216873,246.815689 
z"/>
<path fill="#FEF0E9" opacity="1.000000" stroke="none" 
	d="
M288.661011,178.058746 
	C288.732697,179.364517 288.512634,180.835083 287.831360,182.787262 
	C283.991241,186.709061 280.612396,190.149277 277.233582,193.589478 
	C277.549255,194.011276 277.864929,194.433060 278.180603,194.854843 
	C276.786255,194.569290 275.391907,194.283722 273.997559,193.998169 
	C273.997559,193.998169 273.754089,193.790909 273.632751,193.681381 
	C278.464050,188.455750 283.416687,183.339630 288.661011,178.058746 
z"/>
<path fill="#FDF2EE" opacity="1.000000" stroke="none" 
	d="
M232.940811,197.641373 
	C227.314377,198.694489 230.414505,202.486099 231.045731,206.326294 
	C228.087051,204.992020 225.873428,203.993729 223.276306,202.975708 
	C224.824799,200.973068 226.586685,198.762848 228.776382,197.124405 
	C229.598679,196.509140 231.414597,197.221786 232.940811,197.641373 
z"/>
<path fill="#FEF0E9" opacity="1.000000" stroke="none" 
	d="
M303.010681,181.623444 
	C301.269623,180.977448 299.333099,180.097656 297.477234,179.071869 
	C295.710571,178.095383 294.028168,176.966446 291.893433,175.837311 
	C292.731659,172.753693 294.367676,172.475143 296.598633,174.920288 
	C298.608459,177.123123 300.760925,179.195786 303.010681,181.623444 
z"/>
<path fill="#FDF2EE" opacity="1.000000" stroke="none" 
	d="
M215.654633,210.041443 
	C216.220474,213.822342 213.804245,215.673920 210.164261,216.818024 
	C211.645447,214.578476 213.500290,212.386490 215.654633,210.041443 
z"/>
<path fill="#FDF2EE" opacity="1.000000" stroke="none" 
	d="
M209.445160,216.800354 
	C209.609039,218.865677 209.806458,221.303329 206.087646,219.998016 
	C206.888107,218.841736 208.006332,217.830139 209.445160,216.800354 
z"/>
<path fill="#FDF6F7" opacity="1.000000" stroke="none" 
	d="
M307.975830,236.808838 
	C306.775757,238.097229 305.575653,239.385620 303.733093,240.828094 
	C302.435638,241.704346 301.780640,242.426498 301.125671,243.148636 
	C301.125671,243.148636 301.036804,242.995499 300.683350,243.020050 
	C296.855560,244.060120 293.381256,245.075638 289.906921,246.091156 
	C289.906921,246.091171 289.998779,246.000000 290.021912,245.675079 
	C290.888916,243.242920 291.657440,241.276169 288.315277,240.517151 
	C287.556946,240.344940 286.443604,238.891373 286.558197,238.205521 
	C287.094604,234.996246 285.024933,235.116882 282.676758,234.858200 
	C281.866089,233.383820 281.368103,232.083054 280.870117,230.782288 
	C287.705170,223.962189 294.540192,217.142075 302.037354,210.158661 
	C306.336060,212.809235 310.051361,215.529587 313.566193,218.488144 
	C314.784210,219.513397 315.504730,221.129639 316.452515,222.475937 
	C316.899170,222.244812 317.345856,222.013702 317.792511,221.782578 
	C317.912231,223.249146 318.031921,224.715714 318.151611,226.182281 
	C318.151642,226.182281 317.993408,226.115128 317.692108,226.087204 
	C315.076538,227.654739 312.762268,229.250198 310.370514,230.899094 
	C310.003937,230.671585 309.612366,230.376984 309.179077,230.169556 
	C308.005066,229.607544 306.813354,229.082504 305.628662,228.542801 
	C305.935944,229.796280 306.204987,231.060730 306.560394,232.300430 
	C306.994354,233.814087 307.500763,235.306961 307.975830,236.808838 
z"/>
<path fill="#FEF0E9" opacity="1.000000" stroke="none" 
	d="
M291.005951,186.006714 
	C296.469666,184.672668 299.710510,187.050461 302.042908,194.441254 
	C300.692383,193.635712 299.289215,192.500916 297.943146,191.301987 
	C296.730469,190.221878 295.580322,189.071533 293.024353,186.642181 
	C291.333649,189.010345 289.806305,191.149719 287.847015,193.743011 
	C287.224121,194.767075 287.033142,195.337234 286.842194,195.907394 
	C286.842194,195.907394 286.885986,195.837524 286.524353,195.839935 
	C285.068146,196.879364 283.973572,197.916397 282.878967,198.953430 
	C282.562805,199.014511 282.312683,199.177155 281.774109,199.793762 
	C280.900787,200.747665 280.381958,201.349136 279.863129,201.950592 
	C279.549042,202.019974 279.301971,202.187912 278.749268,202.830383 
	C277.521301,204.408218 276.666016,205.610107 275.810730,206.812012 
	C275.810730,206.812012 275.841736,206.887405 275.559875,206.846024 
	C274.800140,207.182922 274.322235,207.561203 273.844299,207.939468 
	C273.521790,208.050735 273.199280,208.162018 272.647583,208.383942 
	C272.418365,208.494583 272.207581,208.249115 272.049591,207.781921 
	C270.485229,204.908356 267.504028,202.086731 273.852966,202.611923 
	C276.970703,202.869843 282.253632,196.890945 282.664124,193.495529 
	C283.132172,189.624023 286.754883,186.371735 291.005951,186.006714 
z"/>
<path fill="#FEF0E9" opacity="1.000000" stroke="none" 
	d="
M318.491089,226.204041 
	C318.031921,224.715714 317.912231,223.249146 317.792511,221.782578 
	C317.345856,222.013702 316.899170,222.244812 316.452515,222.475937 
	C315.504730,221.129639 314.784210,219.513397 313.566193,218.488144 
	C310.051361,215.529587 306.336060,212.809235 302.315460,209.982147 
	C302.990143,208.760132 304.048828,207.551331 304.781494,206.714798 
	C312.726013,214.327103 320.416382,221.695862 328.257874,229.359528 
	C328.409027,229.654434 328.193878,229.833328 327.699646,229.919739 
	C326.094421,230.683975 324.983276,231.361618 323.872375,232.039658 
	C322.251678,233.028824 320.631165,234.018280 319.010559,235.007629 
	C319.010559,235.007629 318.793213,234.820557 318.681122,234.725998 
	C319.693817,231.861832 325.672272,229.243256 318.491089,226.204041 
z"/>
<path fill="#FEF0E9" opacity="1.000000" stroke="none" 
	d="
M308.280579,236.694244 
	C307.500763,235.306961 306.994354,233.814087 306.560394,232.300430 
	C306.204987,231.060730 305.935944,229.796280 305.628662,228.542801 
	C306.813354,229.082504 308.005066,229.607544 309.179077,230.169556 
	C309.612366,230.376984 310.003937,230.671585 310.370514,230.899094 
	C312.762268,229.250198 315.076538,227.654739 317.776245,226.104431 
	C314.969513,229.626266 311.777405,233.102966 308.280579,236.694244 
z"/>
<path fill="#EA9E7C" opacity="1.000000" stroke="none" 
	d="
M335.041290,229.325897 
	C336.742889,230.458176 338.424133,231.988983 341.235626,234.548950 
	C338.445251,236.871857 336.056427,238.860489 333.297241,240.615768 
	C331.923553,239.572372 330.920227,238.762329 329.916931,237.952271 
	C330.859070,236.818619 331.801239,235.684967 332.903809,234.276077 
	C333.716461,232.575378 334.368683,231.149918 335.041290,229.325897 
z"/>
<path fill="#FEF0E9" opacity="1.000000" stroke="none" 
	d="
M290.044922,246.400299 
	C293.381256,245.075638 296.855560,244.060120 300.738892,243.089172 
	C300.192108,244.422653 299.263214,245.732544 298.275452,246.996445 
	C295.458160,250.601334 292.748596,250.523010 290.044922,246.400299 
z"/>
<path fill="#FEF0E9" opacity="1.000000" stroke="none" 
	d="
M282.989441,235.031815 
	C285.024933,235.116882 287.094604,234.996246 286.558197,238.205521 
	C286.443604,238.891373 287.556946,240.344940 288.315277,240.517151 
	C291.657440,241.276169 290.888916,243.242920 289.976929,245.721161 
	C287.638947,243.945312 285.369080,241.798477 283.251343,239.310760 
	C283.265472,237.657181 283.127472,236.344498 282.989441,235.031815 
z"/>
<path fill="#FEEDDC" opacity="1.000000" stroke="none" 
	d="
M282.676758,234.858200 
	C283.127472,236.344498 283.265472,237.657181 283.076111,239.016235 
	C280.810638,236.775024 274.876251,235.735062 280.575134,230.968811 
	C281.368103,232.083054 281.866089,233.383820 282.676758,234.858200 
z"/>
<path fill="#FEEDDC" opacity="1.000000" stroke="none" 
	d="
M304.678436,248.082092 
	C305.256989,251.001663 304.605042,253.304230 300.381653,252.995026 
	C301.453339,251.410583 302.924866,249.828079 304.678436,248.082092 
z"/>
<path fill="#FEEDDC" opacity="1.000000" stroke="none" 
	d="
M298.704407,254.094376 
	C299.292480,255.326904 299.600708,256.690186 300.111664,258.949890 
	C298.438721,258.302124 297.404633,257.901733 296.175812,257.230988 
	C296.795624,256.048828 297.610107,255.136978 298.704407,254.094376 
z"/>
<path fill="#FEF0E9" opacity="1.000000" stroke="none" 
	d="
M305.225800,198.288666 
	C306.752533,199.364166 308.381989,200.741898 310.034485,202.475311 
	C308.481171,201.417648 306.904846,200.004272 305.225800,198.288666 
z"/>
<path fill="#FEF0E9" opacity="1.000000" stroke="none" 
	d="
M311.250793,204.245575 
	C312.432983,205.027695 313.719849,206.105637 315.021057,207.547150 
	C313.808777,206.787613 312.582123,205.664520 311.250793,204.245575 
z"/>
<path fill="#ECA07D" opacity="1.000000" stroke="none" 
	d="
M276.187927,206.839600 
	C276.666016,205.610107 277.521301,204.408218 278.665039,203.042816 
	C278.157349,204.208588 277.361237,205.537903 276.187927,206.839600 
z"/>
<path fill="#ECA07D" opacity="1.000000" stroke="none" 
	d="
M283.259430,198.964386 
	C283.973572,197.916397 285.068146,196.879364 286.485840,195.825256 
	C285.752594,196.863907 284.696228,197.919617 283.259430,198.964386 
z"/>
<path fill="#FEF0E9" opacity="1.000000" stroke="none" 
	d="
M301.425903,243.093964 
	C301.780640,242.426498 302.435638,241.704346 303.428040,240.950500 
	C303.085693,241.625641 302.405945,242.332474 301.425903,243.093964 
z"/>
<path fill="#ECA07D" opacity="1.000000" stroke="none" 
	d="
M280.207214,201.924957 
	C280.381958,201.349136 280.900787,200.747665 281.684662,200.003891 
	C281.483582,200.540833 281.017456,201.220078 280.207214,201.924957 
z"/>
<path fill="#EA9E7C" opacity="1.000000" stroke="none" 
	d="
M333.007629,227.036896 
	C333.495667,227.026657 333.731720,227.228516 333.994324,227.721161 
	C333.660858,227.685455 333.239136,227.431137 333.007629,227.036896 
z"/>
<path fill="#ECA07D" opacity="1.000000" stroke="none" 
	d="
M274.166687,207.936203 
	C274.322235,207.561203 274.800140,207.182922 275.593201,206.822525 
	C275.435242,207.204575 274.962158,207.568741 274.166687,207.936203 
z"/>
<path fill="#ECA07D" opacity="1.000000" stroke="none" 
	d="
M287.127930,195.768082 
	C287.033142,195.337234 287.224121,194.767075 287.680603,194.027969 
	C287.768646,194.448929 287.591156,195.038849 287.127930,195.768082 
z"/>
<path fill="#EA9E7C" opacity="1.000000" stroke="none" 
	d="
M329.024414,223.020538 
	C329.520996,223.005630 329.758484,223.207352 330.008301,223.709579 
	C329.667480,223.675583 329.249054,223.417953 329.024414,223.020538 
z"/>
<path fill="#EA9E7C" opacity="1.000000" stroke="none" 
	d="
M334.135193,228.156067 
	C334.317261,228.105011 334.600525,228.291199 334.978668,228.720093 
	C334.794525,228.772964 334.515472,228.583130 334.135193,228.156067 
z"/>
<path fill="#EA9E7C" opacity="1.000000" stroke="none" 
	d="
M330.156097,224.167801 
	C330.338226,224.104416 330.640717,224.290100 331.085754,224.707703 
	C330.911011,224.765381 330.593750,224.591125 330.156097,224.167801 
z"/>
<path fill="#EA9E7C" opacity="1.000000" stroke="none" 
	d="
M314.817139,260.377533 
	C307.949554,267.067505 301.220947,273.457581 294.092773,280.227081 
	C290.677551,277.113953 287.295837,274.031372 283.612823,270.817352 
	C278.584045,265.794281 273.838745,260.919647 269.137482,256.002960 
	C267.135956,253.909775 264.046387,251.805923 268.886658,249.079498 
	C276.726959,257.308990 284.603699,265.576752 292.984863,274.373901 
	C301.875977,265.583588 309.628204,257.919250 317.839386,250.416245 
	C319.309326,251.103882 320.320343,251.630173 321.331360,252.156464 
	C319.206299,254.796844 317.081207,257.437225 314.817139,260.377533 
z"/>
<path fill="#F1996E" opacity="1.000000" stroke="none" 
	d="
M321.606110,251.990540 
	C320.320343,251.630173 319.309326,251.103882 318.136841,250.265045 
	C318.327148,249.607925 318.678955,249.263382 319.620270,248.807434 
	C320.426361,248.314972 320.642944,247.933914 320.859497,247.552841 
	C321.713806,246.451859 322.568115,245.350876 324.072174,244.119629 
	C325.484497,243.000671 326.247040,242.011978 327.009613,241.023285 
	C327.009613,241.023285 327.254364,240.863708 327.733765,240.779449 
	C328.427277,240.312683 328.641388,239.930176 328.855469,239.547638 
	C329.057678,239.093552 329.259918,238.639450 329.689545,238.068817 
	C330.920227,238.762329 331.923553,239.572372 332.972473,240.712524 
	C329.305664,244.636642 325.593262,248.230637 321.606110,251.990540 
z"/>
<path fill="#FCF7F9" opacity="1.000000" stroke="none" 
	d="
M319.149872,235.326599 
	C320.631165,234.018280 322.251678,233.028824 323.872375,232.039658 
	C324.983276,231.361618 326.094421,230.683975 327.594360,230.011841 
	C327.652374,231.956421 327.321503,233.895309 326.990601,235.834198 
	C324.444550,234.909897 321.729340,240.893402 319.149872,235.326599 
z"/>
<path fill="#EA9E7C" opacity="1.000000" stroke="none" 
	d="
M326.716919,241.130066 
	C326.247040,242.011978 325.484497,243.000671 324.350616,243.991791 
	C324.794250,243.075104 325.609222,242.155975 326.716919,241.130066 
z"/>
<path fill="#EA9E7C" opacity="1.000000" stroke="none" 
	d="
M328.587128,239.712585 
	C328.641388,239.930176 328.427277,240.312683 327.879883,240.779678 
	C327.803955,240.535278 328.061371,240.206406 328.587128,239.712585 
z"/>
<path fill="#EA9E7C" opacity="1.000000" stroke="none" 
	d="
M320.591003,247.717285 
	C320.642944,247.933914 320.426361,248.314972 319.876068,248.779022 
	C319.802399,248.535248 320.062469,248.208481 320.591003,247.717285 
z"/>
<path fill="#F1996E" opacity="1.000000" stroke="none" 
	d="
M187.067154,209.482178 
	C188.140244,209.067673 189.178497,209.033081 190.608383,208.999237 
	C191.000000,209.000000 191.000610,209.000610 191.000244,209.371262 
	C191.375320,210.817215 191.750793,211.892532 192.126266,212.967834 
	C192.437973,213.325882 192.749680,213.683929 193.176392,214.617340 
	C193.871414,215.454712 194.451416,215.716736 195.031418,215.978775 
	C195.031418,215.978775 194.999390,216.000000 195.027100,216.293976 
	C195.437698,217.015533 195.820602,217.443100 196.203491,217.870682 
	C196.203491,217.870682 196.273163,217.827194 196.315308,217.821152 
	C195.725876,218.398819 195.094299,218.982529 194.462708,219.566254 
	C191.985916,216.331543 189.509125,213.096817 187.067154,209.482178 
z"/>
<path fill="#F1996E" opacity="1.000000" stroke="none" 
	d="
M190.999695,208.999695 
	C191.644211,207.566589 192.289032,206.133789 192.976044,204.360611 
	C193.376007,205.199905 193.733780,206.379562 194.105148,207.917542 
	C194.024765,208.558594 193.850372,208.777206 193.029999,208.980240 
	C191.976471,209.019379 191.488541,209.009995 191.000610,209.000610 
	C191.000610,209.000610 191.000000,209.000000 190.999695,208.999695 
z"/>
<path fill="#EA9F7B" opacity="1.000000" stroke="none" 
	d="
M191.000244,209.371262 
	C191.488541,209.009995 191.976471,209.019379 192.830719,209.058411 
	C192.828461,210.153534 192.459869,211.219009 192.108765,212.626160 
	C191.750793,211.892532 191.375320,210.817215 191.000244,209.371262 
z"/>
<path fill="#EA9F7B" opacity="1.000000" stroke="none" 
	d="
M204.869644,225.733215 
	C204.451920,225.791046 203.903793,225.581131 203.258301,225.080505 
	C203.687042,225.015030 204.213150,225.240265 204.869644,225.733215 
z"/>
<path fill="#EA9F7B" opacity="1.000000" stroke="none" 
	d="
M205.746552,226.002777 
	C206.073151,226.423706 206.150681,226.835205 206.219879,227.559814 
	C205.823685,227.453323 205.435791,227.033722 205.023438,226.307175 
	C204.998993,226.000244 205.497467,225.993362 205.746552,226.002777 
z"/>
<path fill="#EA9F7B" opacity="1.000000" stroke="none" 
	d="
M194.884491,215.707047 
	C194.451416,215.716736 193.871414,215.454712 193.209686,214.862335 
	C193.664490,214.833099 194.201019,215.134201 194.884491,215.707047 
z"/>
<path fill="#EA9F7B" opacity="1.000000" stroke="none" 
	d="
M196.196487,217.568756 
	C195.820602,217.443100 195.437698,217.015533 195.038132,216.278259 
	C195.410812,216.401321 195.800156,216.834076 196.196487,217.568756 
z"/>
<path fill="#EA9F7B" opacity="1.000000" stroke="none" 
	d="
M203.250870,224.549438 
	C203.066986,224.566116 202.878708,224.375641 202.858856,224.087921 
	C203.027283,223.990662 203.246460,224.342316 203.250870,224.549438 
z"/>
<path fill="#FEE3EA" opacity="1.000000" stroke="none" 
	d="
M176.896271,310.923950 
	C175.690109,308.579987 174.877457,306.212311 174.064804,303.844666 
	C174.642792,303.358917 175.220764,302.873199 175.798752,302.387482 
	C177.783524,303.618500 180.797104,304.421722 181.526047,306.174896 
	C182.806519,309.254456 179.851913,310.288544 176.896271,310.923950 
z"/>
<path fill="#FED4E0" opacity="1.000000" stroke="none" 
	d="
M273.533203,315.851746 
	C273.486237,313.156860 273.825012,310.522339 274.163757,307.887848 
	C274.659821,307.869537 275.155884,307.851227 275.651978,307.832886 
	C276.529236,310.124420 277.406525,312.415924 278.538147,315.371857 
	C276.627838,315.595306 275.273407,315.753723 273.533203,315.851746 
z"/>
<path fill="#FED4E0" opacity="1.000000" stroke="none" 
	d="
M359.396484,315.589294 
	C357.602051,315.783478 356.152344,315.783478 353.840424,315.783478 
	C354.922302,312.786926 355.812744,310.320526 356.703217,307.854095 
	C357.095184,307.833374 357.487152,307.812622 357.879120,307.791901 
	C358.499817,310.326294 359.120514,312.860718 359.396484,315.589294 
z"/>
<path fill="#FEE3EA" opacity="1.000000" stroke="none" 
	d="
M153.086990,303.735046 
	C153.877930,305.509216 155.152893,307.905151 154.575760,308.497925 
	C153.176605,309.935059 150.915176,310.532684 148.328400,311.797607 
	C148.328400,308.290405 148.328400,305.916718 148.328400,303.006256 
	C149.960297,303.202942 151.344467,303.369812 153.086990,303.735046 
z"/>
<path fill="#E9456A" opacity="1.000000" stroke="none" 
	d="
M212.069855,314.021973 
	C215.133224,312.778961 216.975769,313.886536 218.009903,316.929138 
	C218.961456,319.728760 220.099930,322.464874 221.156067,325.228943 
	C220.654160,325.509857 220.152252,325.790771 219.650345,326.071686 
	C217.233734,322.814484 214.817123,319.557251 212.174210,315.799408 
	C211.988556,314.873199 212.029205,314.447571 212.069855,314.021973 
z"/>
<path fill="#E9456A" opacity="1.000000" stroke="none" 
	d="
M200.005768,317.045959 
	C200.740829,315.389252 201.452621,314.125000 202.484421,312.292297 
	C204.698151,317.718445 202.497040,322.895691 196.651077,326.098145 
	C197.973618,322.660278 198.978043,320.049347 200.005768,317.045959 
z"/>
<path fill="#FED4E0" opacity="1.000000" stroke="none" 
	d="
M211.881943,313.720886 
	C212.029205,314.447571 211.988556,314.873199 211.879089,315.611938 
	C210.030197,315.925049 208.250107,315.925049 205.604568,315.925049 
	C206.725525,312.883118 207.573334,310.582397 208.793228,307.272003 
	C210.079727,309.998535 210.886887,311.709167 211.881943,313.720886 
z"/>
<path fill="#E9456A" opacity="1.000000" stroke="none" 
	d="
M211.015106,302.905579 
	C210.436203,304.136597 209.861374,304.965118 209.286560,305.793640 
	C208.640884,305.342346 207.438522,304.880096 207.447144,304.441681 
	C207.482101,302.665192 207.889450,300.896057 208.159409,299.124207 
	C208.753845,299.082550 209.348282,299.040924 209.942734,298.999268 
	C210.301544,300.167206 210.660355,301.335175 211.015106,302.905579 
z"/>
<path fill="#EA9F7B" opacity="1.000000" stroke="none" 
	d="
M213.026550,234.333374 
	C214.638611,235.418854 216.240005,236.878830 218.006912,238.622299 
	C216.453583,237.506470 214.734741,236.107162 213.026550,234.333374 
z"/>
<path fill="#EA9F7B" opacity="1.000000" stroke="none" 
	d="
M206.177399,228.134262 
	C207.180405,228.593201 208.149078,229.396561 209.153229,230.530762 
	C208.173477,230.067322 207.158264,229.272995 206.177399,228.134262 
z"/>
<path fill="#EA9F7B" opacity="1.000000" stroke="none" 
	d="
M211.268875,233.056488 
	C211.710236,232.978729 212.245239,233.197845 212.909973,233.690399 
	C212.480637,233.760330 211.921570,233.556839 211.268875,233.056488 
z"/>
<path fill="#EA9F7B" opacity="1.000000" stroke="none" 
	d="
M210.206299,232.093002 
	C210.438766,231.994293 210.743805,232.149185 211.113235,232.560852 
	C210.878036,232.660614 210.578445,232.503616 210.206299,232.093002 
z"/>
<path fill="#EA9F7B" opacity="1.000000" stroke="none" 
	d="
M209.202179,231.100830 
	C209.427872,231.015259 209.727036,231.182587 210.091309,231.608459 
	C209.862823,231.695923 209.569244,231.524826 209.202179,231.100830 
z"/>
<path fill="#FCF7F9" opacity="1.000000" stroke="none" 
	d="
M290.968079,185.665878 
	C286.754883,186.371735 283.132172,189.624023 282.664124,193.495529 
	C282.253632,196.890945 276.970703,202.869843 273.852966,202.611923 
	C267.504028,202.086731 270.485229,204.908356 271.945984,207.657669 
	C269.929688,209.469208 267.759064,210.817932 265.814606,212.438049 
	C263.596375,214.286270 261.579590,216.376297 259.475281,218.361252 
	C259.160828,218.073105 258.846375,217.784943 258.531891,217.496796 
	C258.954712,215.581985 259.377502,213.667175 259.898651,211.306961 
	C260.768616,211.140869 262.033569,210.899368 263.263031,210.664627 
	C263.541351,204.785233 267.666595,200.521820 273.413300,199.588501 
	C278.427948,198.774078 273.962769,196.351212 274.033020,194.343658 
	C275.391907,194.283722 276.786255,194.569290 278.180603,194.854843 
	C277.864929,194.433060 277.549255,194.011276 277.233582,193.589478 
	C280.612396,190.149277 283.991241,186.709061 287.678162,183.128906 
	C288.967590,183.767670 289.948914,184.546356 290.968079,185.665878 
z"/>
</svg>